<svg viewBox="0 0 23 108" fill="none" xmlns="http://www.w3.org/2000/svg">
<path d="M0.310303 25.1392L0.310303 29.4276L9.74479 24.2815V19.9931L0.310303 25.1392Z" fill="url(#paint0_linear_281_2388)"/>
<path d="M0.310303 36.6702L0.310303 40.9586L9.74479 35.8125V31.5241L0.310303 36.6702Z" fill="url(#paint1_linear_281_2388)"/>
<path d="M0.310303 48.2013L0.310303 52.4897L9.74479 47.3436V43.0552L0.310303 48.2013Z" fill="url(#paint2_linear_281_2388)"/>
<path d="M5.55176 104.379H5.02762V104.903H5.55176V104.379ZM22.2055 104.379L19.1793 101.353L16.1532 104.379L19.1793 107.405L22.2055 104.379ZM5.02762 0.0758667V104.379H6.0759V0.0758667H5.02762ZM5.55176 104.903H19.1793V103.855H5.55176V104.903Z" fill="url(#paint3_linear_281_2388)" fill-opacity="0.55"/>
<defs>
<linearGradient id="paint0_linear_281_2388" x1="-3.35866" y1="36.7655" x2="24.9448" y2="46.7241" gradientUnits="userSpaceOnUse">
<stop stop-color="white"/>
<stop offset="1" stop-color="white" stop-opacity="0"/>
</linearGradient>
<linearGradient id="paint1_linear_281_2388" x1="-3.35866" y1="36.7655" x2="24.9448" y2="46.7241" gradientUnits="userSpaceOnUse">
<stop stop-color="white"/>
<stop offset="1" stop-color="white" stop-opacity="0"/>
</linearGradient>
<linearGradient id="paint2_linear_281_2388" x1="-3.35866" y1="36.7655" x2="24.9448" y2="46.7241" gradientUnits="userSpaceOnUse">
<stop stop-color="white"/>
<stop offset="1" stop-color="white" stop-opacity="0"/>
</linearGradient>
<linearGradient id="paint3_linear_281_2388" x1="17.0828" y1="118.007" x2="0.310376" y2="-17.7448" gradientUnits="userSpaceOnUse">
<stop stop-color="white"/>
<stop offset="1" stop-color="white" stop-opacity="0"/>
</linearGradient>
</defs>
</svg>
